Start = 10.000000, duration = 60, magnitude = 100.000000, direction = 180
datacolumns 10
datarows 110
range 18.81667074 18.87122269
endheader
time	ground_force1_vx	ground_force1_vy	ground_force1_vz	ground_force1_px	ground_force1_py	ground_force1_pz	ground_torque1_x	ground_torque1_y	ground_torque1_z
18.81667074	-72.48591378	8.876964229e-15	0	0	0	0	0	0	0
18.81669904	-72.48935187	8.877385275e-15	0	0	0	0	0	0	0
18.81684055	-72.50654085	8.879490317e-15	0	0	0	0	0	0	0
18.81754808	-72.59241556	8.890006936e-15	0	0	0	0	0	0	0
18.81825561	-72.67817726	8.900509714e-15	0	0	0	0	0	0	0
18.81896315	-72.763827	8.910998783e-15	0	0	0	0	0	0	0
18.81967068	-72.84936225	8.92147383e-15	0	0	0	0	0	0	0
18.82	-72.88913597	8.926344706e-15	0	0	0	0	0	0	0
18.82000173	-72.88934485	8.926370286e-15	0	0	0	0	0	0	0
18.82000346	-72.88955373	8.926395866e-15	0	0	0	0	0	0	0
18.82001212	-72.8905993	8.926523912e-15	0	0	0	0	0	0	0
18.82005542	-72.89582693	8.927164112e-15	0	0	0	0	0	0	0
18.82027189	-72.92195505	8.930363884e-15	0	0	0	0	0	0	0
18.82065985	-72.96875557	8.936095295e-15	0	0	0	0	0	0	0
18.8210478	-73.01552073	8.941822375e-15	0	0	0	0	0	0	0
18.82156573	-73.07790096	8.94946175e-15	0	0	0	0	0	0	0
18.82208367	-73.14022143	8.957093806e-15	0	0	0	0	0	0	0
18.82272646	-73.21747945	8.966555184e-15	0	0	0	0	0	0	0
18.82349913	-73.31022343	8.977913046e-15	0	0	0	0	0	0	0
18.82450211	-73.43040858	8.992631483e-15	0	0	0	0	0	0	0
18.82524093	-73.51879302	9.003455455e-15	0	0	0	0	0	0	0
18.82597976	-73.60705385	9.014264289e-15	0	0	0	0	0	0	0
18.82671858	-73.69518852	9.025057674e-15	0	0	0	0	0	0	0
18.82731659	-73.7664342	9.033782753e-15	0	0	0	0	0	0	0
18.82808088	-73.85737069	9.044919261e-15	0	0	0	0	0	0	0
18.82884516	-73.94817182	9.056039192e-15	0	0	0	0	0	0	0
18.82960945	-74.03883978	9.067142815e-15	0	0	0	0	0	0	0
18.83	-74.08511893	9.072810377e-15	0	0	0	0	0	0	0
18.83000138	-74.0852824	9.072830395e-15	0	0	0	0	0	0	0
18.83000276	-74.08544586	9.072850414e-15	0	0	0	0	0	0	0
18.83000965	-74.08626199	9.072950361e-15	0	0	0	0	0	0	0
18.83004414	-74.0903472	9.073450654e-15	0	0	0	0	0	0	0
18.83021654	-74.11076321	9.075950895e-15	0	0	0	0	0	0	0
18.83063685	-74.1605086	9.082042948e-15	0	0	0	0	0	0	0
18.83114307	-74.2203677	9.089373573e-15	0	0	0	0	0	0	0
18.83179701	-74.29760669	9.098832622e-15	0	0	0	0	0	0	0
18.83262283	-74.3950058	9.110760572e-15	0	0	0	0	0	0	0
18.83345925	-74.49349425	9.122821929e-15	0	0	0	0	0	0	0
18.83429566	-74.59181943	9.134863291e-15	0	0	0	0	0	0	0
18.83513207	-74.68998233	9.146884778e-15	0	0	0	0	0	0	0
18.83587068	-74.77653209	9.157484067e-15	0	0	0	0	0	0	0
18.83660929	-74.86295498	9.168067818e-15	0	0	0	0	0	0	0
18.83734789	-74.94924967	9.178635871e-15	0	0	0	0	0	0	0
18.8380865	-75.03541838	9.189188494e-15	0	0	0	0	0	0	0
18.83882511	-75.12145977	9.199725525e-15	0	0	0	0	0	0	0
18.83956372	-75.20737369	9.210246947e-15	0	0	0	0	0	0	0
18.84	-75.25806115	9.216454369e-15	0	0	0	0	0	0	0
18.84000177	-75.2582667	9.216479542e-15	0	0	0	0	0	0	0
18.84000354	-75.25847224	9.216504714e-15	0	0	0	0	0	0	0
18.84001239	-75.25949998	9.216630575e-15	0	0	0	0	0	0	0
18.84005666	-75.26464069	9.217260132e-15	0	0	0	0	0	0	0
18.84027797	-75.29033275	9.220406501e-15	0	0	0	0	0	0	0
18.84099419	-75.37340066	9.230579386e-15	0	0	0	0	0	0	0
18.84159329	-75.44279252	9.239077438e-15	0	0	0	0	0	0	0
18.8421924	-75.51210132	9.247565318e-15	0	0	0	0	0	0	0
18.84303374	-75.60929048	9.259467558e-15	0	0	0	0	0	0	0
18.8438512	-75.70356166	9.271012447e-15	0	0	0	0	0	0	0
18.84466867	-75.79767666	9.28253821e-15	0	0	0	0	0	0	0
18.84548613	-75.89163297	9.294044539e-15	0	0	0	0	0	0	0
18.84630359	-75.98543155	9.305531553e-15	0	0	0	0	0	0	0
18.84712106	-76.07907336	9.316999367e-15	0	0	0	0	0	0	0
18.84793852	-76.1725559	9.328447677e-15	0	0	0	0	0	0	0
18.84875598	-76.26588014	9.3398766e-15	0	0	0	0	0	0	0
18.8495627	-76.35782286	9.351136336e-15	0	0	0	0	0	0	0
18.85	-76.40759782	9.35723201e-15	0	0	0	0	0	0	0
18.85000136	-76.40775255	9.357250959e-15	0	0	0	0	0	0	0
18.85000273	-76.40790842	9.357270047e-15	0	0	0	0	0	0	0
18.85000955	-76.40868433	9.357365069e-15	0	0	0	0	0	0	0
18.85004368	-76.41256713	9.357840575e-15	0	0	0	0	0	0	0
18.85021429	-76.43197244	9.36021704e-15	0	0	0	0	0	0	0
18.85086185	-76.50556342	9.369229336e-15	0	0	0	0	0	0	0
18.85150941	-76.57905462	9.378229412e-15	0	0	0	0	0	0	0
18.85215696	-76.65244482	9.387217119e-15	0	0	0	0	0	0	0
18.85307703	-76.75654917	9.399966225e-15	0	0	0	0	0	0	0
18.85399711	-76.86045257	9.412690721e-15	0	0	0	0	0	0	0
18.85477307	-76.9479234	9.423402809e-15	0	0	0	0	0	0	0
18.85554904	-77.03525126	9.434097387e-15	0	0	0	0	0	0	0
18.85632501	-77.12243485	9.444774298e-15	0	0	0	0	0	0	0
18.8569282	-77.1901061	9.453061637e-15	0	0	0	0	0	0	0
18.85753139	-77.25769001	9.461338278e-15	0	0	0	0	0	0	0
18.85834723	-77.348961	9.472515751e-15	0	0	0	0	0	0	0
18.85916307	-77.44007188	9.483673615e-15	0	0	0	0	0	0	0
18.8599789	-77.53102133	9.49481171e-15	0	0	0	0	0	0	0
18.86	-77.53337145	9.495099517e-15	0	0	0	0	0	0	0
18.86000142	-77.5335296	9.495118885e-15	0	0	0	0	0	0	0
18.86000285	-77.53368887	9.49513839e-15	0	0	0	0	0	0	0
18.86000996	-77.53448075	9.495235368e-15	0	0	0	0	0	0	0
18.86004554	-77.53844333	9.495720643e-15	0	0	0	0	0	0	0
18.86022341	-77.55824827	9.498146049e-15	0	0	0	0	0	0	0
18.86061879	-77.60224454	9.503534038e-15	0	0	0	0	0	0	0
18.86101416	-77.64620196	9.50891727e-15	0	0	0	0	0	0	0
18.86160501	-77.71182258	9.516953478e-15	0	0	0	0	0	0	0
18.86231691	-77.7907751	9.526622373e-15	0	0	0	0	0	0	0
18.86320448	-77.88903836	9.538656152e-15	0	0	0	0	0	0	0
18.86409205	-77.98711079	9.550666561e-15	0	0	0	0	0	0	0
18.86476788	-78.0616588	9.559796058e-15	0	0	0	0	0	0	0
18.8654437	-78.13609481	9.568911841e-15	0	0	0	0	0	0	0
18.86611952	-78.21041983	9.578014031e-15	0	0	0	0	0	0	0
18.86679534	-78.28463376	9.587102615e-15	0	0	0	0	0	0	0
18.86760671	-78.37358595	9.597996117e-15	0	0	0	0	0	0	0
18.86841808	-78.46237767	9.608869967e-15	0	0	0	0	0	0	0
18.86922945	-78.55100875	9.619724143e-15	0	0	0	0	0	0	0
18.87	-78.63503191	9.630014012e-15	0	0	0	0	0	0	0
18.87000129	-78.63517245	9.630031224e-15	0	0	0	0	0	0	0
18.87000258	-78.63531299	9.630048436e-15	0	0	0	0	0	0	0
18.87000903	-78.6360157	9.630134493e-15	0	0	0	0	0	0	0
18.8700413	-78.63953129	9.630565028e-15	0	0	0	0	0	0	0
18.87020264	-78.65710429	9.6327171e-15	0	0	0	0	0	0	0
18.87071266	-78.71261331	9.639514994e-15	0	0	0	0	0	0	0
18.87122269	-78.76805973	9.646305222e-15	0	0	0	0	0	0	0
